<svg xmlns="http://www.w3.org/2000/svg" width="640" height="360"><rect width="640" height="360" fill="#254455"/><rect x="22" y="24" width="596" height="312" rx="14" fill="#91cfd6"/><path d="M22 246L143 135L219 211L369 95L618 254V336H22Z" fill="#3d9478"/><path d="M22 286L133 244L270 280L411 221L618 269V336H22Z" fill="#276858"/><g fill="#deb74d"><rect x="90" y="231" width="110" height="16" rx="4"/><rect x="278" y="179" width="110" height="16" rx="4"/><rect x="468" y="133" width="100" height="16" rx="4"/></g><g fill="#fff0a7"><circle cx="126" cy="197" r="10"/><circle cx="327" cy="145" r="10"/><circle cx="509" cy="98" r="10"/></g><rect x="290" y="137" width="22" height="38" rx="6" fill="#e46749"/><text x="48" y="65" fill="#fff" font-family="sans-serif" font-size="21" font-weight="bold">A little adventure.</text></svg>
