<svg xmlns="http://www.w3.org/2000/svg" width="640" height="360" viewBox="0 0 640 360"><rect width="640" height="360" fill="#e7dcff"/><path d="M0 260L200 0H400L130 360H0ZM350 360L640 40V230L530 360Z" fill="#c3a8f5"/><g transform="translate(183 20) rotate(-14 70 140)"><rect width="150" height="306" rx="26" fill="#21304c"/><rect x="7" y="8" width="136" height="290" rx="21" fill="#fff"/><rect x="49" y="15" width="52" height="9" rx="5" fill="#21304c"/><text x="17" y="54" font-family="sans-serif" font-size="16" font-weight="bold" fill="#7c3aed">ANKT</text><rect x="17" y="73" width="116" height="102" rx="10" fill="#e5dafa"/><circle cx="75" cy="119" r="27" fill="#a489da"/><path d="M20 198H124M20 216H116M20 234H100" stroke="#d9dfeb" stroke-width="8"/><rect x="17" y="259" width="116" height="23" rx="7" fill="#7c3aed"/></g><g transform="translate(337 43) rotate(13 70 140)"><rect width="150" height="306" rx="26" fill="#21304c"/><rect x="7" y="8" width="136" height="290" rx="21" fill="#fff"/><rect x="49" y="15" width="52" height="9" rx="5" fill="#21304c"/><g fill="#d8e5f8"><rect x="17" y="55" width="116" height="48" rx="8"/><rect x="17" y="117" width="116" height="48" rx="8"/><rect x="17" y="179" width="116" height="48" rx="8"/></g><g fill="#759bcb"><circle cx="41" cy="79" r="16"/><circle cx="41" cy="141" r="16"/><circle cx="41" cy="203" r="16"/></g><path d="M69 76H119M69 138H119M69 200H119" stroke="#94aac9" stroke-width="7"/></g></svg>
